<svg width="724" height="196" viewBox="0 0 724 196" fill="none" xmlns="http://www.w3.org/2000/svg">
<g filter="url(#filter0_d)">
<path d="M144.876 53.9648C144.876 52.8407 145.788 51.9294 146.912 51.9294V51.9294C148.036 51.9294 148.947 52.8407 148.947 53.9648V95.5404C148.947 96.6645 148.036 97.5758 146.912 97.5758V97.5758C145.788 97.5758 144.876 96.6645 144.876 95.5404V53.9648Z" fill="#4ECCA3"/>
<path d="M160.942 64.0751C160.942 58.5139 161.81 54.4653 163.545 51.9294C165.324 49.349 168.127 48.0588 171.953 48.0588C174.979 48.0588 177.359 48.9486 179.094 50.7282C180.829 52.5078 181.697 54.9547 181.697 58.069C181.697 61.8506 180.451 64.8314 177.96 67.0114C175.513 69.1469 172.243 70.1034 168.15 69.881L164.946 69.6808V80.5178C164.946 80.6509 165.054 80.7587 165.187 80.7587H173.021C174.016 80.7587 174.823 81.5654 174.823 82.5605V82.5605C174.823 83.5557 174.016 84.3624 173.021 84.3624H165.187C165.054 84.3624 164.946 84.4702 164.946 84.6033V112.925C164.946 114.03 164.05 114.927 162.944 114.927V114.927C161.839 114.927 160.942 114.03 160.942 112.925V64.0751ZM168.15 66.4108C171.13 66.4108 173.466 65.6767 175.157 64.2086C176.847 62.6959 177.693 60.6272 177.693 58.0023C177.693 55.9557 177.181 54.3986 176.158 53.3309C175.134 52.2186 173.689 51.6625 171.82 51.6625C169.462 51.6625 167.727 52.6635 166.615 54.6655C165.502 56.6231 164.946 59.6929 164.946 63.8749V63.8749C164.946 65.2754 166.082 66.4108 167.482 66.4108H168.15Z" fill="#4ECCA3"/>
<path d="M218.845 94.3363C219.547 94.8626 219.799 95.8431 219.161 96.4446C218.881 96.7078 218.555 96.9514 218.182 97.1754C217.292 97.6648 216.291 97.9094 215.179 97.9094C213.399 97.9094 211.931 97.3533 210.774 96.2411C209.617 95.1288 209.039 93.6829 209.039 91.9034V75.153C209.039 69.8143 206.637 67.1449 201.832 67.1449C199.563 67.1449 197.627 67.7232 196.026 68.88C194.461 69.9666 192.854 71.6053 191.204 73.7961C191.128 73.8969 191.087 74.0199 191.087 74.146V95.5737C191.087 96.6794 190.191 97.5758 189.085 97.5758V97.5758C187.98 97.5758 187.083 96.6794 187.083 95.5737V74.152C187.083 71.6525 186.611 69.6255 185.666 68.0711C185.055 67.0662 184.984 65.7074 185.815 64.8759V64.8759C186.481 64.2103 187.535 64.0763 188.192 64.7506C188.544 65.1123 188.886 65.5322 189.219 66.0104V66.0104C190.107 67.2122 192.195 67.5785 193.329 66.6046C194.126 65.9198 194.958 65.3658 195.826 64.9426C197.694 64.0084 199.807 63.5412 202.165 63.5412C205.413 63.5412 207.993 64.3865 209.907 66.0771C211.82 67.7232 212.865 70.1702 213.043 73.4179V91.9701C213.043 92.5929 213.243 93.1268 213.644 93.5717C214.089 93.9721 214.6 94.1723 215.179 94.1723C215.249 94.1723 215.319 94.1699 215.387 94.1651C216.52 94.0848 217.936 93.6545 218.845 94.3363V94.3363Z" fill="#4ECCA3"/>
<path d="M236.952 98.2431C233.926 98.2431 231.324 97.4868 229.144 95.9742C226.964 94.417 225.295 92.3482 224.139 89.7679C223.026 87.143 222.47 84.2734 222.47 81.1591C222.47 77.7779 223.138 74.7749 224.472 72.15C225.807 69.4806 227.698 67.4118 230.145 65.9437C232.636 64.431 235.55 63.6747 238.887 63.6747C239.91 63.6747 241.2 63.7414 242.758 63.8749C243.969 63.9441 245.073 64.0403 246.069 64.1634C246.505 64.2173 246.895 63.8809 246.895 63.4418V51.0603C246.895 49.9555 247.791 49.0599 248.896 49.0599V49.0599C250.002 49.0599 250.898 49.9574 250.896 51.0634L250.832 91.8366C250.832 92.7264 251.033 93.416 251.433 93.9054C251.878 94.3503 252.412 94.5727 253.035 94.5727C253.168 94.5727 253.297 94.5623 253.422 94.5413C254.458 94.3671 255.683 94.0021 256.508 94.6541V94.6541C257.254 95.2438 257.431 96.3521 256.696 96.9554C256.34 97.2474 255.965 97.4764 255.571 97.6425C254.77 98.0429 253.836 98.2431 252.768 98.2431C251.211 98.2431 249.831 97.7092 248.63 96.6415V96.6415C247.727 95.8082 244.985 95.2776 243.999 96.0104C243.587 96.3172 243.15 96.5943 242.691 96.8417C241 97.776 239.087 98.2431 236.952 98.2431ZM237.152 94.6395C239.109 94.6395 240.845 94.1723 242.357 93.238C243.914 92.3038 245.116 90.9913 245.961 89.3007C246.584 88.055 246.895 86.6313 246.895 85.0297V69.2279C246.895 68.4156 246.298 67.7269 245.494 67.612V67.612C243.403 67.3006 241.668 67.1449 240.288 67.1449C235.395 67.1449 231.858 68.3683 229.678 70.8153C227.542 73.2177 226.474 76.5099 226.474 80.692C226.474 84.696 227.409 88.0328 229.277 90.7021C231.19 93.327 233.815 94.6395 237.152 94.6395Z" fill="#4ECCA3"/>
<path d="M275.752 98.2431C272.415 98.2431 269.59 97.5535 267.276 96.1744C264.963 94.7952 263.205 92.9044 262.004 90.5019C260.848 88.055 260.269 85.2966 260.269 82.2269C260.269 79.2016 260.825 76.2653 261.938 73.4179C263.094 70.5706 264.807 68.2349 267.076 66.4108C269.39 64.5867 272.192 63.6747 275.485 63.6747C277.665 63.6747 279.689 64.0973 281.557 64.9426C283.426 65.7879 284.894 66.9892 285.962 68.5463C287.074 70.1034 287.63 71.9053 287.63 73.9518C287.63 77.244 286.229 79.8022 283.426 81.6263C280.623 83.4058 276.753 84.2734 271.814 84.2289V84.2289C267.918 84.1935 264.571 87.8982 266.97 90.9687C267.25 91.3273 267.552 91.6611 267.877 91.9701C269.79 93.7497 272.415 94.6395 275.752 94.6395C277.754 94.6395 279.6 94.3725 281.29 93.8386C282.528 93.4262 283.731 92.8668 284.9 92.1603C285.696 91.6797 286.742 91.8317 287.3 92.5752V92.5752C287.855 93.3151 287.722 94.3693 286.95 94.8786C285.599 95.7696 284.113 96.513 282.492 97.1086C280.356 97.865 278.109 98.2431 275.752 98.2431ZM272.682 80.7587C279.978 80.7587 283.626 78.4675 283.626 73.8851C283.626 71.6606 282.848 70.0145 281.29 68.9467C279.778 67.8345 277.909 67.2784 275.685 67.2784C273.193 67.2784 271.08 67.9902 269.345 69.4139C267.654 70.8375 266.386 72.5949 265.541 74.6859V74.6859C264.249 77.8821 267.068 80.7587 270.516 80.7587H272.682Z" fill="#4ECCA3"/>
<path d="M294.973 69.881C294.661 69.1247 294.194 68.4128 293.571 67.7455C293.485 67.6396 293.398 67.5376 293.31 67.4395C292.578 66.6248 292.282 65.3534 292.93 64.4704V64.4704C293.481 63.7182 294.53 63.5017 295.232 64.1151C296.871 65.5451 298.186 67.6228 299.177 70.3481L305.87 87.9301C306.464 89.4922 308.678 89.4816 309.258 87.9137L317.543 65.4996C317.815 64.7639 318.517 64.2753 319.301 64.2753V64.2753C320.608 64.2753 321.514 65.5794 321.057 66.8041L310.312 95.6322C309.876 96.8008 308.76 97.5758 307.513 97.5758V97.5758C306.271 97.5758 305.159 96.8074 304.72 95.6459L294.973 69.881Z" fill="#4ECCA3"/>
</g>
<g filter="url(#filter1_d)">
<path d="M123.688 71.9087C124.657 71.9087 125.448 72.695 125.394 73.6626C124.963 81.4645 121.666 88.8599 116.099 94.414C110.117 100.383 102.003 103.736 93.5422 103.736C85.0817 103.736 76.9677 100.383 70.9852 94.414C65.4183 88.8599 62.1214 81.4645 61.6901 73.6626C61.6367 72.695 62.4273 71.9087 63.3963 71.9087V71.9087C64.3653 71.9087 65.1451 72.6952 65.2052 73.6624C65.6322 80.5351 68.5578 87.041 73.4665 91.9384C78.7909 97.2506 86.0124 100.235 93.5422 100.235C101.072 100.235 108.294 97.2506 113.618 91.9384C118.527 87.041 121.452 80.535 121.879 73.6624C121.939 72.6952 122.719 71.9087 123.688 71.9087V71.9087Z" fill="#4ECCA3"/>
</g>
<g filter="url(#filter2_d)">
<rect x="98.4556" y="70.2953" width="3.08005" height="9.24015" rx="1.54003" fill="#4ECCA3"/>
<rect x="97.8916" y="77.4446" width="3.09338" height="10.8022" rx="1.54669" transform="rotate(-31.0704 97.8916 77.4446)" fill="#4ECCA3"/>
<rect width="3.09338" height="10.8022" rx="1.54669" transform="matrix(-0.856534 -0.516091 -0.516091 0.856534 101.987 77.4652)" fill="#4ECCA3"/>
<rect x="94.3489" y="83.2021" width="3.08005" height="9.24015" rx="1.54003" fill="#4ECCA3"/>
<rect x="102.562" y="83.2021" width="3.08005" height="9.24015" rx="1.54003" fill="#4ECCA3"/>
<rect x="94.4956" y="92.4423" width="3.08005" height="10.8535" rx="1.54003" transform="rotate(-90 94.4956 92.4423)" fill="#4ECCA3"/>
</g>
<path d="M66.8391 85.8286C67.0537 86.7965 66.4421 87.768 65.4541 87.8501C63.1473 88.0417 60.8191 87.6274 58.7057 86.6334C56.0481 85.3834 53.8801 83.2873 52.5412 80.6735C51.2023 78.0596 50.7681 75.0754 51.3066 72.1884C51.7348 69.8924 52.7589 67.7609 54.2624 66.0009C54.9063 65.2471 56.052 65.3184 56.7121 66.0581V66.0581C57.3722 66.7977 57.2915 67.9244 56.6862 68.7095C55.7559 69.9161 55.1182 71.3323 54.8357 72.8466C54.4429 74.9528 54.7597 77.1298 55.7365 79.0368C56.7132 80.9437 58.2949 82.4728 60.2336 83.3847C61.6276 84.0403 63.1495 84.3503 64.6723 84.3004C65.6631 84.2679 66.6246 84.8607 66.8391 85.8286V85.8286Z" fill="#4ECCA3"/>
<g filter="url(#filter3_d)">
<path d="M66.8391 85.8286C67.0537 86.7965 66.4421 87.768 65.4541 87.8501C63.1473 88.0417 60.8191 87.6274 58.7057 86.6334C56.0481 85.3834 53.8801 83.2873 52.5412 80.6735C51.2023 78.0596 50.7681 75.0754 51.3066 72.1884C51.7348 69.8924 52.7589 67.7609 54.2624 66.0009C54.9063 65.2471 56.052 65.3184 56.7121 66.0581V66.0581C57.3722 66.7977 57.2915 67.9244 56.6862 68.7095C55.7559 69.9161 55.1182 71.3323 54.8357 72.8466C54.4429 74.9528 54.7597 77.1298 55.7365 79.0368C56.7132 80.9437 58.2949 82.4728 60.2336 83.3847C61.6276 84.0403 63.1495 84.3503 64.6723 84.3004C65.6631 84.2679 66.6246 84.8607 66.8391 85.8286V85.8286Z" fill="#4ECCA3"/>
</g>
<g filter="url(#filter4_d)">
<path d="M143.795 52.8833C143.795 51.7592 144.706 50.8479 145.83 50.8479V50.8479C146.954 50.8479 147.866 51.7592 147.866 52.8833V94.4588C147.866 95.583 146.954 96.4942 145.83 96.4942V96.4942C144.706 96.4942 143.795 95.583 143.795 94.4588V52.8833Z" fill="#E5E5E5"/>
<path d="M159.861 62.9936C159.861 57.4324 160.728 53.3838 162.463 50.8479C164.243 48.2675 167.046 46.9773 170.872 46.9773C173.897 46.9773 176.277 47.8671 178.012 49.6467C179.747 51.4263 180.615 53.8732 180.615 56.9875C180.615 60.7691 179.369 63.7499 176.878 65.9299C174.431 68.0654 171.161 69.0219 167.068 68.7994L163.865 68.5992V79.4363C163.865 79.5693 163.973 79.6772 164.106 79.6772H171.94C172.935 79.6772 173.741 80.4839 173.741 81.479V81.479C173.741 82.4741 172.935 83.2808 171.94 83.2808H164.106C163.973 83.2808 163.865 83.3887 163.865 83.5217V111.843C163.865 112.949 162.968 113.845 161.863 113.845V113.845C160.757 113.845 159.861 112.949 159.861 111.843V62.9936ZM167.068 65.3293C170.049 65.3293 172.384 64.5952 174.075 63.127C175.766 61.6144 176.611 59.5456 176.611 56.9207C176.611 54.8742 176.099 53.3171 175.076 52.2493C174.053 51.1371 172.607 50.581 170.738 50.581C168.38 50.581 166.645 51.582 165.533 53.584C164.421 55.5415 163.865 58.6113 163.865 62.7934V62.7934C163.865 64.1939 165 65.3293 166.401 65.3293H167.068Z" fill="#E5E5E5"/>
<path d="M217.763 93.2547C218.465 93.781 218.717 94.7616 218.079 95.363C217.8 95.6262 217.473 95.8698 217.1 96.0938C216.21 96.5832 215.209 96.8279 214.097 96.8279C212.317 96.8279 210.849 96.2718 209.692 95.1595C208.536 94.0473 207.957 92.6014 207.957 90.8218V74.0715C207.957 68.7327 205.555 66.0633 200.75 66.0633C198.481 66.0633 196.546 66.6417 194.944 67.7984C193.379 68.8851 191.772 70.5238 190.122 72.7146C190.047 72.8153 190.006 72.9384 190.006 73.0645V94.4922C190.006 95.5979 189.109 96.4942 188.004 96.4942V96.4942C186.898 96.4942 186.002 95.5979 186.002 94.4922V73.0705C186.002 70.571 185.529 68.544 184.584 66.9895C183.973 65.9846 183.902 64.6259 184.734 63.7943V63.7943C185.399 63.1288 186.453 62.9948 187.11 63.6691C187.462 64.0307 187.805 64.4506 188.137 64.9289V64.9289C189.026 66.1307 191.114 66.4969 192.247 65.523C193.044 64.8382 193.876 64.2843 194.744 63.8611C196.612 62.9268 198.726 62.4597 201.084 62.4597C204.331 62.4597 206.912 63.305 208.825 64.9956C210.738 66.6417 211.783 69.0886 211.961 72.3364V90.8885C211.961 91.5114 212.162 92.0453 212.562 92.4902C213.007 92.8906 213.519 93.0908 214.097 93.0908C214.168 93.0908 214.237 93.0884 214.305 93.0836C215.438 93.0033 216.854 92.573 217.763 93.2547V93.2547Z" fill="#E5E5E5"/>
<path d="M235.87 97.1616C232.845 97.1616 230.242 96.4053 228.062 94.8926C225.882 93.3355 224.214 91.2667 223.057 88.6863C221.945 86.0614 221.389 83.1918 221.389 80.0776C221.389 76.6964 222.056 73.6933 223.391 71.0684C224.725 68.399 226.616 66.3303 229.063 64.8621C231.555 63.3495 234.469 62.5931 237.805 62.5931C238.829 62.5931 240.119 62.6599 241.676 62.7934C242.888 62.8626 243.991 62.9588 244.988 63.0819C245.423 63.1357 245.813 62.7994 245.813 62.3603V49.9788C245.813 48.874 246.709 47.9783 247.814 47.9783V47.9783C248.92 47.9783 249.816 48.8759 249.814 49.9819L249.751 90.7551C249.751 91.6449 249.951 92.3345 250.351 92.8238C250.796 93.2687 251.33 93.4912 251.953 93.4912C252.086 93.4912 252.215 93.4807 252.34 93.4598C253.377 93.2856 254.601 92.9205 255.426 93.5726V93.5726C256.172 94.1623 256.349 95.2706 255.614 95.8739C255.258 96.1659 254.883 96.3949 254.489 96.561C253.688 96.9614 252.754 97.1616 251.686 97.1616C250.129 97.1616 248.75 96.6277 247.549 95.56V95.56C246.646 94.7266 243.904 94.196 242.918 94.9289C242.505 95.2356 242.069 95.5127 241.609 95.7602C239.919 96.6944 238.006 97.1616 235.87 97.1616ZM236.07 93.5579C238.028 93.5579 239.763 93.0908 241.276 92.1565C242.833 91.2222 244.034 89.9098 244.879 88.2192C245.502 86.9735 245.813 85.5498 245.813 83.9482V68.1463C245.813 67.334 245.216 66.6454 244.412 66.5305V66.5305C242.321 66.2191 240.586 66.0633 239.207 66.0633C234.313 66.0633 230.776 67.2868 228.596 69.7337C226.461 72.1362 225.393 75.4284 225.393 79.6104C225.393 83.6145 226.327 86.9512 228.196 89.6206C230.109 92.2455 232.734 93.5579 236.07 93.5579Z" fill="#E5E5E5"/>
<path d="M274.67 97.1616C271.333 97.1616 268.508 96.472 266.195 95.0928C263.881 93.7136 262.124 91.8228 260.923 89.4204C259.766 86.9735 259.187 84.2151 259.187 81.1453C259.187 78.12 259.744 75.1837 260.856 72.3364C262.013 69.489 263.725 67.1533 265.994 65.3293C268.308 63.5052 271.111 62.5931 274.403 62.5931C276.583 62.5931 278.607 63.0158 280.476 63.8611C282.344 64.7064 283.812 65.9076 284.88 67.4648C285.992 69.0219 286.549 70.8237 286.549 72.8703C286.549 76.1625 285.147 78.7206 282.344 80.5447C279.541 82.3243 275.671 83.1918 270.733 83.1473V83.1473C266.836 83.1119 263.489 86.8166 265.888 89.8872C266.168 90.2458 266.471 90.5796 266.795 90.8885C268.708 92.6681 271.333 93.5579 274.67 93.5579C276.672 93.5579 278.518 93.291 280.209 92.7571C281.446 92.3447 282.649 91.7852 283.819 91.0788C284.614 90.5982 285.661 90.7502 286.218 91.4937V91.4937C286.773 92.2336 286.64 93.2878 285.868 93.7971C284.518 94.6881 283.032 95.4314 281.41 96.0271C279.275 96.7834 277.028 97.1616 274.67 97.1616ZM271.6 79.6772C278.896 79.6772 282.545 77.3859 282.545 72.8035C282.545 70.579 281.766 68.9329 280.209 67.8652C278.696 66.7529 276.828 66.1968 274.603 66.1968C272.112 66.1968 269.998 66.9086 268.263 68.3323C266.573 69.756 265.305 71.5133 264.46 73.6043V73.6043C263.167 76.8006 265.986 79.6772 269.434 79.6772H271.6Z" fill="#E5E5E5"/>
<path d="M293.891 68.7994C293.58 68.0431 293.112 67.3313 292.49 66.6639C292.403 66.558 292.316 66.456 292.228 66.358C291.497 65.5433 291.201 64.2718 291.848 63.3889V63.3889C292.4 62.6367 293.448 62.4202 294.151 63.0335C295.789 64.4636 297.104 66.5413 298.095 69.2666L304.788 86.8485C305.383 88.4107 307.596 88.4 308.176 86.8322L316.462 64.4181C316.734 63.6823 317.435 63.1938 318.22 63.1938V63.1938C319.527 63.1938 320.432 64.4979 319.976 65.7225L309.23 94.5507C308.795 95.7193 307.679 96.4942 306.432 96.4942V96.4942C305.19 96.4942 304.078 95.7258 303.638 94.5644L293.891 68.7994Z" fill="#E5E5E5"/>
</g>
<g filter="url(#filter5_d)">
<path d="M122.607 70.8272C123.576 70.8272 124.366 71.6135 124.313 72.581C123.882 80.3829 120.585 87.7784 115.018 93.3324C109.035 99.3012 100.921 102.654 92.4607 102.654C84.0002 102.654 75.8861 99.3012 69.9036 93.3324C64.3368 87.7784 61.0399 80.3829 60.6086 72.581C60.5551 71.6135 61.3457 70.8272 62.3147 70.8272V70.8272C63.2837 70.8272 64.0636 71.6137 64.1237 72.5808C64.5507 79.4535 67.4763 85.9595 72.3849 90.8568C77.7093 96.169 84.9308 99.1534 92.4607 99.1534C99.9906 99.1534 107.212 96.169 112.536 90.8568C117.445 85.9595 120.371 79.4535 120.798 72.5808C120.858 71.6137 121.638 70.8272 122.607 70.8272V70.8272Z" fill="#E5E5E5"/>
</g>
<g filter="url(#filter6_d)">
<rect x="97.3741" y="69.2139" width="3.08005" height="9.24015" rx="1.54003" fill="#E5E5E5"/>
<rect x="96.8103" y="76.3632" width="3.09338" height="10.8022" rx="1.54669" transform="rotate(-31.0704 96.8103 76.3632)" fill="#E5E5E5"/>
<rect width="3.09338" height="10.8022" rx="1.54669" transform="matrix(-0.856534 -0.516091 -0.516091 0.856534 100.905 76.3838)" fill="#E5E5E5"/>
<rect x="93.2675" y="82.1207" width="3.08005" height="9.24015" rx="1.54003" fill="#E5E5E5"/>
<rect x="101.481" y="82.1207" width="3.08005" height="9.24015" rx="1.54003" fill="#E5E5E5"/>
<rect x="93.4141" y="91.3608" width="3.08005" height="10.8535" rx="1.54003" transform="rotate(-90 93.4141 91.3608)" fill="#E5E5E5"/>
</g>
<path d="M65.7576 84.747C65.9721 85.7149 65.3605 86.6864 64.3726 86.7685C62.0658 86.9602 59.7376 86.5459 57.6241 85.5518C54.9666 84.3018 52.7986 82.2058 51.4597 79.5919C50.1208 76.978 49.6865 73.9939 50.225 71.1068C50.6532 68.8109 51.6774 66.6794 53.1808 64.9193C53.8247 64.1655 54.9705 64.2369 55.6306 64.9765V64.9765C56.2907 65.7162 56.2099 66.8428 55.6046 67.6279C54.6744 68.8345 54.0366 70.2508 53.7542 71.7651C53.3614 73.8713 53.6781 76.0483 54.6549 77.9552C55.6317 79.8621 57.2133 81.3913 59.1521 82.3032C60.546 82.9588 62.068 83.2687 63.5907 83.2188C64.5816 83.1864 65.543 83.7792 65.7576 84.747V84.747Z" fill="#E5E5E5"/>
<g filter="url(#filter7_d)">
<path d="M65.7576 84.747C65.9721 85.7149 65.3605 86.6864 64.3726 86.7685C62.0658 86.9602 59.7376 86.5459 57.6241 85.5518C54.9666 84.3018 52.7986 82.2058 51.4597 79.5919C50.1208 76.978 49.6865 73.9939 50.225 71.1068C50.6532 68.8109 51.6774 66.6794 53.1808 64.9193C53.8247 64.1655 54.9705 64.2369 55.6306 64.9765V64.9765C56.2907 65.7162 56.2099 66.8428 55.6046 67.6279C54.6744 68.8345 54.0366 70.2508 53.7542 71.7651C53.3614 73.8713 53.6781 76.0483 54.6549 77.9552C55.6317 79.8621 57.2133 81.3913 59.1521 82.3032C60.546 82.9588 62.068 83.2687 63.5907 83.2188C64.5816 83.1864 65.543 83.7792 65.7576 84.747V84.747Z" fill="#E5E5E5"/>
</g>
<path d="M687.837 129.326H666.964C665.382 129.326 663.865 129.954 662.747 131.072C661.628 132.191 661 133.708 661 135.29V177.036C661 178.618 661.628 180.135 662.747 181.253C663.865 182.372 665.382 183 666.964 183H708.711C710.292 183 711.809 182.372 712.928 181.253C714.046 180.135 714.674 178.618 714.674 177.036V156.163" stroke="#4ECCA3" stroke-width="5.96382" stroke-linecap="round" stroke-linejoin="round"/>
<path d="M710.202 124.853C711.388 123.666 712.997 123 714.674 123C716.352 123 717.961 123.666 719.147 124.853C720.334 126.039 721 127.648 721 129.326C721 131.003 720.334 132.612 719.147 133.798L690.819 162.127L678.891 165.109L681.873 153.181L710.202 124.853Z" stroke="#4ECCA3" stroke-width="5.96382" stroke-linecap="round" stroke-linejoin="round"/>
<path d="M685.837 127.326H664.964C663.382 127.326 661.865 127.954 660.747 129.072C659.628 130.191 659 131.708 659 133.29V175.036C659 176.618 659.628 178.135 660.747 179.253C661.865 180.372 663.382 181 664.964 181H706.711C708.292 181 709.809 180.372 710.928 179.253C712.046 178.135 712.674 176.618 712.674 175.036V154.163" stroke="#E5E5E5" stroke-width="5.96382" stroke-linecap="round" stroke-linejoin="round"/>
<path d="M708.202 122.853C709.388 121.666 710.997 121 712.674 121C714.352 121 715.961 121.666 717.147 122.853C718.334 124.039 719 125.648 719 127.326C719 129.003 718.334 130.612 717.147 131.798L688.819 160.127L676.891 163.109L679.873 151.181L708.202 122.853Z" stroke="#E5E5E5" stroke-width="5.96382" stroke-linecap="round" stroke-linejoin="round"/>
<path d="M209.45 174C202.25 172.32 196.73 168.69 192.89 163.11C189.05 157.47 187.13 150.84 187.13 143.22C187.13 137.16 188.36 131.73 190.82 126.93C193.34 122.13 196.85 118.38 201.35 115.68C205.91 112.92 211.13 111.54 217.01 111.54C222.95 111.54 228.2 112.92 232.76 115.68C237.32 118.44 240.83 122.25 243.29 127.11C245.75 131.91 246.98 137.31 246.98 143.31C246.98 149.37 245.72 154.8 243.2 159.6C240.74 164.34 237.23 168.06 232.67 170.76C228.17 173.46 222.98 174.81 217.1 174.81H214.58L209.27 182.46L216.47 184.89C219.95 186.09 223.28 186.69 226.46 186.69C227.96 186.69 229.34 186.48 230.6 186.06C231.86 185.64 233.39 184.8 235.19 183.54L237.44 187.5C235.16 189.12 233.3 190.17 231.86 190.65C230.48 191.13 228.89 191.37 227.09 191.37C223.13 191.37 219.23 190.71 215.39 189.39L206.48 186.42L202.7 191.91L198.83 188.94L209.45 174ZM217.01 169.95C222.05 169.95 226.43 168.81 230.15 166.53C233.87 164.19 236.69 160.98 238.61 156.9C240.59 152.82 241.58 148.23 241.58 143.13C241.58 138.03 240.59 133.47 238.61 129.45C236.63 125.37 233.78 122.19 230.06 119.91C226.4 117.63 222.08 116.49 217.1 116.49C212.12 116.49 207.77 117.63 204.05 119.91C200.33 122.19 197.48 125.34 195.5 129.36C193.52 133.38 192.53 137.97 192.53 143.13C192.53 148.23 193.49 152.82 195.41 156.9C197.39 160.92 200.21 164.1 203.87 166.44C207.59 168.78 211.97 169.95 217.01 169.95ZM302.129 171.48C301.229 172.74 300.209 173.61 299.069 174.09C297.989 174.63 296.729 174.9 295.289 174.9C293.189 174.9 291.329 174.18 289.709 172.74C288.149 171.3 287.369 169.56 287.369 167.52C283.229 172.32 278.219 174.72 272.339 174.72C267.839 174.72 264.329 173.64 261.809 171.48C259.289 169.26 257.909 165.93 257.669 161.49V142.23C257.669 137.49 256.409 134.01 253.889 131.79L257.489 128.19C258.929 129.09 260.219 130.5 261.359 132.42C262.499 134.34 263.069 136.41 263.069 138.63V159.15C263.069 162.57 263.819 165.21 265.319 167.07C266.879 168.93 269.399 169.86 272.879 169.86C276.179 169.86 278.999 169.14 281.339 167.7C283.739 166.26 285.719 163.98 287.279 160.86L287.369 129H292.769L292.679 166.26C292.679 167.46 292.949 168.39 293.489 169.05C294.089 169.65 294.809 169.95 295.649 169.95C296.729 169.95 297.599 169.44 298.259 168.42L302.129 171.48ZM315.439 166.44C315.439 167.28 315.709 168 316.249 168.6C316.849 169.14 317.539 169.41 318.319 169.41C319.519 169.41 320.389 168.9 320.929 167.88L324.889 170.85C324.409 171.87 323.569 172.74 322.369 173.46C321.169 174.12 319.819 174.45 318.319 174.45C315.919 174.45 313.939 173.7 312.379 172.2C310.819 170.7 310.039 168.75 310.039 166.35V129H315.439V166.44ZM312.469 123.15C311.449 123.15 310.549 122.79 309.769 122.07C309.049 121.29 308.689 120.39 308.689 119.37C308.689 118.29 309.049 117.39 309.769 116.67C310.549 115.89 311.449 115.5 312.469 115.5C313.549 115.5 314.449 115.89 315.169 116.67C315.949 117.39 316.339 118.29 316.339 119.37C316.339 120.39 315.949 121.29 315.169 122.07C314.449 122.79 313.549 123.15 312.469 123.15ZM354.493 134.04H331.363V129.18H363.583V130.35L339.193 165.9L345.763 168.42C348.763 169.56 352.063 170.13 355.663 170.13C357.163 170.13 358.513 169.95 359.713 169.59C360.913 169.17 362.443 168.33 364.303 167.07L366.733 171.21C364.813 172.59 363.043 173.58 361.423 174.18C359.803 174.84 357.943 175.17 355.843 175.17C352.543 175.17 348.823 174.51 344.683 173.19L335.953 170.31L332.443 175.8L327.943 172.83L354.493 134.04ZM396.944 134.04H373.814V129.18H406.034V130.35L381.644 165.9L388.214 168.42C391.214 169.56 394.514 170.13 398.114 170.13C399.614 170.13 400.964 169.95 402.164 169.59C403.364 169.17 404.894 168.33 406.754 167.07L409.184 171.21C407.264 172.59 405.494 173.58 403.874 174.18C402.254 174.84 400.394 175.17 398.294 175.17C394.994 175.17 391.274 174.51 387.134 173.19L378.404 170.31L374.894 175.8L370.394 172.83L396.944 134.04ZM424.455 117.48C423.255 117.48 422.355 117.57 421.755 117.75C421.215 117.87 420.735 118.14 420.315 118.56C419.955 118.92 419.625 119.43 419.325 120.09C419.085 120.69 418.965 121.26 418.965 121.8L414.015 121.71C414.135 118.89 415.035 116.64 416.715 114.96C417.615 114.12 418.665 113.52 419.865 113.16C421.125 112.74 422.685 112.5 424.545 112.44H443.895C449.295 112.44 453.525 114.21 456.585 117.75C459.645 121.29 461.175 125.88 461.175 131.52C461.175 135.78 460.275 139.38 458.475 142.32C456.675 145.2 454.275 147.36 451.275 148.8C448.275 150.18 444.945 150.87 441.285 150.87C439.725 150.87 437.505 150.72 434.625 150.42V145.56C437.445 145.74 439.515 145.83 440.835 145.83C450.795 145.83 455.775 141.09 455.775 131.61C455.775 126.93 454.605 123.42 452.265 121.08C449.925 118.68 446.715 117.48 442.635 117.48H429.855V174.09H424.455V117.48ZM486.298 174.9C482.158 174.9 478.618 173.85 475.678 171.75C472.738 169.65 470.518 166.86 469.018 163.38C467.518 159.9 466.768 156.06 466.768 151.86C466.768 147.24 467.668 143.16 469.468 139.62C471.268 136.02 473.848 133.23 477.208 131.25C480.568 129.27 484.498 128.28 488.998 128.28C490.378 128.28 492.118 128.37 494.218 128.55C496.318 128.67 498.178 128.85 499.798 129.09H505.198V166.26C505.198 167.46 505.468 168.39 506.008 169.05C506.608 169.65 507.328 169.95 508.168 169.95C509.248 169.95 510.118 169.44 510.778 168.42L514.648 171.48C513.748 172.74 512.728 173.61 511.588 174.09C510.508 174.63 509.248 174.9 507.808 174.9C505.708 174.9 503.848 174.18 502.228 172.74C500.668 171.3 499.888 169.56 499.888 167.52C498.448 169.92 496.558 171.75 494.218 173.01C491.878 174.27 489.238 174.9 486.298 174.9ZM486.388 170.04C489.088 170.04 491.518 169.38 493.678 168.06C495.838 166.74 497.458 165 498.538 162.84C499.378 161.1 499.798 159.18 499.798 157.08V133.5L493.858 133.32L488.638 133.14C483.178 133.14 479.068 134.85 476.308 138.27C473.548 141.69 472.168 146.16 472.168 151.68C472.168 156.78 473.368 161.13 475.768 164.73C478.228 168.27 481.768 170.04 486.388 170.04ZM540.4 128.1C542.2 128.1 544 128.37 545.8 128.91V133.95C544.06 133.53 542.32 133.32 540.58 133.32C537.52 133.32 535.03 134.07 533.11 135.57C531.19 137.07 529.48 139.2 527.98 141.96V174H522.58V142.5C522.58 137.76 521.32 134.28 518.8 132.06L522.4 128.46C523.48 129.12 524.5 130.11 525.46 131.43C526.42 132.75 527.11 134.22 527.53 135.84C529.21 133.08 530.89 131.19 532.57 130.17C534.67 128.79 537.28 128.1 540.4 128.1ZM567.597 175.08C561.537 175.08 555.897 172.74 550.677 168.06L553.647 164.46C555.927 166.32 558.177 167.76 560.397 168.78C562.677 169.74 565.107 170.22 567.687 170.22C570.927 170.22 573.447 169.47 575.247 167.97C577.107 166.41 578.037 164.31 578.037 161.67C578.037 159.99 577.617 158.64 576.777 157.62C575.997 156.54 574.917 155.67 573.537 155.01C572.217 154.35 569.817 153.3 566.337 151.86C563.157 150.54 560.697 149.4 558.957 148.44C557.217 147.48 555.837 146.31 554.817 144.93C553.797 143.49 553.287 141.69 553.287 139.53C553.287 135.99 554.547 133.17 557.067 131.07C559.587 128.91 562.947 127.83 567.147 127.83C569.307 127.83 571.437 128.13 573.537 128.73C575.697 129.33 577.527 130.2 579.027 131.34L576.777 135.21C574.017 133.53 570.897 132.69 567.417 132.69C564.657 132.69 562.527 133.23 561.027 134.31C559.527 135.39 558.777 136.92 558.777 138.9C558.777 140.4 559.167 141.63 559.947 142.59C560.787 143.55 561.837 144.36 563.097 145.02C564.417 145.62 566.577 146.52 569.577 147.72C572.997 149.1 575.637 150.36 577.497 151.5C579.417 152.58 580.887 153.93 581.907 155.55C582.987 157.11 583.527 159.06 583.527 161.4C583.527 165.54 582.057 168.87 579.117 171.39C576.237 173.85 572.397 175.08 567.597 175.08ZM611.838 174.9C607.338 174.9 603.528 173.97 600.408 172.11C597.288 170.25 594.918 167.7 593.298 164.46C591.738 161.16 590.958 157.44 590.958 153.3C590.958 149.22 591.708 145.26 593.208 141.42C594.768 137.58 597.078 134.43 600.138 131.97C603.258 129.51 607.038 128.28 611.478 128.28C614.418 128.28 617.148 128.85 619.668 129.99C622.188 131.13 624.168 132.75 625.608 134.85C627.108 136.95 627.858 139.38 627.858 142.14C627.858 146.58 625.968 150.03 622.188 152.49C618.408 154.89 613.188 156.06 606.528 156L596.628 155.91C597.168 160.53 598.698 164.04 601.218 166.44C603.798 168.84 607.338 170.04 611.838 170.04C614.538 170.04 617.028 169.68 619.308 168.96C621.648 168.18 623.898 167.01 626.058 165.45L628.758 169.05C626.478 170.85 623.868 172.29 620.928 173.37C618.048 174.39 615.018 174.9 611.838 174.9ZM607.698 151.32C617.538 151.32 622.458 148.23 622.458 142.05C622.458 139.05 621.408 136.83 619.308 135.39C617.268 133.89 614.748 133.14 611.748 133.14C608.388 133.14 605.538 134.1 603.198 136.02C600.918 137.94 599.208 140.31 598.068 143.13C596.928 145.95 596.358 148.68 596.358 151.32H607.698Z" fill="#44B892"/>
<path d="M207.45 172C200.25 170.32 194.73 166.69 190.89 161.11C187.05 155.47 185.13 148.84 185.13 141.22C185.13 135.16 186.36 129.73 188.82 124.93C191.34 120.13 194.85 116.38 199.35 113.68C203.91 110.92 209.13 109.54 215.01 109.54C220.95 109.54 226.2 110.92 230.76 113.68C235.32 116.44 238.83 120.25 241.29 125.11C243.75 129.91 244.98 135.31 244.98 141.31C244.98 147.37 243.72 152.8 241.2 157.6C238.74 162.34 235.23 166.06 230.67 168.76C226.17 171.46 220.98 172.81 215.1 172.81H212.58L207.27 180.46L214.47 182.89C217.95 184.09 221.28 184.69 224.46 184.69C225.96 184.69 227.34 184.48 228.6 184.06C229.86 183.64 231.39 182.8 233.19 181.54L235.44 185.5C233.16 187.12 231.3 188.17 229.86 188.65C228.48 189.13 226.89 189.37 225.09 189.37C221.13 189.37 217.23 188.71 213.39 187.39L204.48 184.42L200.7 189.91L196.83 186.94L207.45 172ZM215.01 167.95C220.05 167.95 224.43 166.81 228.15 164.53C231.87 162.19 234.69 158.98 236.61 154.9C238.59 150.82 239.58 146.23 239.58 141.13C239.58 136.03 238.59 131.47 236.61 127.45C234.63 123.37 231.78 120.19 228.06 117.91C224.4 115.63 220.08 114.49 215.1 114.49C210.12 114.49 205.77 115.63 202.05 117.91C198.33 120.19 195.48 123.34 193.5 127.36C191.52 131.38 190.53 135.97 190.53 141.13C190.53 146.23 191.49 150.82 193.41 154.9C195.39 158.92 198.21 162.1 201.87 164.44C205.59 166.78 209.97 167.95 215.01 167.95ZM300.129 169.48C299.229 170.74 298.209 171.61 297.069 172.09C295.989 172.63 294.729 172.9 293.289 172.9C291.189 172.9 289.329 172.18 287.709 170.74C286.149 169.3 285.369 167.56 285.369 165.52C281.229 170.32 276.219 172.72 270.339 172.72C265.839 172.72 262.329 171.64 259.809 169.48C257.289 167.26 255.909 163.93 255.669 159.49V140.23C255.669 135.49 254.409 132.01 251.889 129.79L255.489 126.19C256.929 127.09 258.219 128.5 259.359 130.42C260.499 132.34 261.069 134.41 261.069 136.63V157.15C261.069 160.57 261.819 163.21 263.319 165.07C264.879 166.93 267.399 167.86 270.879 167.86C274.179 167.86 276.999 167.14 279.339 165.7C281.739 164.26 283.719 161.98 285.279 158.86L285.369 127H290.769L290.679 164.26C290.679 165.46 290.949 166.39 291.489 167.05C292.089 167.65 292.809 167.95 293.649 167.95C294.729 167.95 295.599 167.44 296.259 166.42L300.129 169.48ZM313.439 164.44C313.439 165.28 313.709 166 314.249 166.6C314.849 167.14 315.539 167.41 316.319 167.41C317.519 167.41 318.389 166.9 318.929 165.88L322.889 168.85C322.409 169.87 321.569 170.74 320.369 171.46C319.169 172.12 317.819 172.45 316.319 172.45C313.919 172.45 311.939 171.7 310.379 170.2C308.819 168.7 308.039 166.75 308.039 164.35V127H313.439V164.44ZM310.469 121.15C309.449 121.15 308.549 120.79 307.769 120.07C307.049 119.29 306.689 118.39 306.689 117.37C306.689 116.29 307.049 115.39 307.769 114.67C308.549 113.89 309.449 113.5 310.469 113.5C311.549 113.5 312.449 113.89 313.169 114.67C313.949 115.39 314.339 116.29 314.339 117.37C314.339 118.39 313.949 119.29 313.169 120.07C312.449 120.79 311.549 121.15 310.469 121.15ZM352.493 132.04H329.363V127.18H361.583V128.35L337.193 163.9L343.763 166.42C346.763 167.56 350.063 168.13 353.663 168.13C355.163 168.13 356.513 167.95 357.713 167.59C358.913 167.17 360.443 166.33 362.303 165.07L364.733 169.21C362.813 170.59 361.043 171.58 359.423 172.18C357.803 172.84 355.943 173.17 353.843 173.17C350.543 173.17 346.823 172.51 342.683 171.19L333.953 168.31L330.443 173.8L325.943 170.83L352.493 132.04ZM394.944 132.04H371.814V127.18H404.034V128.35L379.644 163.9L386.214 166.42C389.214 167.56 392.514 168.13 396.114 168.13C397.614 168.13 398.964 167.95 400.164 167.59C401.364 167.17 402.894 166.33 404.754 165.07L407.184 169.21C405.264 170.59 403.494 171.58 401.874 172.18C400.254 172.84 398.394 173.17 396.294 173.17C392.994 173.17 389.274 172.51 385.134 171.19L376.404 168.31L372.894 173.8L368.394 170.83L394.944 132.04ZM422.455 115.48C421.255 115.48 420.355 115.57 419.755 115.75C419.215 115.87 418.735 116.14 418.315 116.56C417.955 116.92 417.625 117.43 417.325 118.09C417.085 118.69 416.965 119.26 416.965 119.8L412.015 119.71C412.135 116.89 413.035 114.64 414.715 112.96C415.615 112.12 416.665 111.52 417.865 111.16C419.125 110.74 420.685 110.5 422.545 110.44H441.895C447.295 110.44 451.525 112.21 454.585 115.75C457.645 119.29 459.175 123.88 459.175 129.52C459.175 133.78 458.275 137.38 456.475 140.32C454.675 143.2 452.275 145.36 449.275 146.8C446.275 148.18 442.945 148.87 439.285 148.87C437.725 148.87 435.505 148.72 432.625 148.42V143.56C435.445 143.74 437.515 143.83 438.835 143.83C448.795 143.83 453.775 139.09 453.775 129.61C453.775 124.93 452.605 121.42 450.265 119.08C447.925 116.68 444.715 115.48 440.635 115.48H427.855V172.09H422.455V115.48ZM484.298 172.9C480.158 172.9 476.618 171.85 473.678 169.75C470.738 167.65 468.518 164.86 467.018 161.38C465.518 157.9 464.768 154.06 464.768 149.86C464.768 145.24 465.668 141.16 467.468 137.62C469.268 134.02 471.848 131.23 475.208 129.25C478.568 127.27 482.498 126.28 486.998 126.28C488.378 126.28 490.118 126.37 492.218 126.55C494.318 126.67 496.178 126.85 497.798 127.09H503.198V164.26C503.198 165.46 503.468 166.39 504.008 167.05C504.608 167.65 505.328 167.95 506.168 167.95C507.248 167.95 508.118 167.44 508.778 166.42L512.648 169.48C511.748 170.74 510.728 171.61 509.588 172.09C508.508 172.63 507.248 172.9 505.808 172.9C503.708 172.9 501.848 172.18 500.228 170.74C498.668 169.3 497.888 167.56 497.888 165.52C496.448 167.92 494.558 169.75 492.218 171.01C489.878 172.27 487.238 172.9 484.298 172.9ZM484.388 168.04C487.088 168.04 489.518 167.38 491.678 166.06C493.838 164.74 495.458 163 496.538 160.84C497.378 159.1 497.798 157.18 497.798 155.08V131.5L491.858 131.32L486.638 131.14C481.178 131.14 477.068 132.85 474.308 136.27C471.548 139.69 470.168 144.16 470.168 149.68C470.168 154.78 471.368 159.13 473.768 162.73C476.228 166.27 479.768 168.04 484.388 168.04ZM538.4 126.1C540.2 126.1 542 126.37 543.8 126.91V131.95C542.06 131.53 540.32 131.32 538.58 131.32C535.52 131.32 533.03 132.07 531.11 133.57C529.19 135.07 527.48 137.2 525.98 139.96V172H520.58V140.5C520.58 135.76 519.32 132.28 516.8 130.06L520.4 126.46C521.48 127.12 522.5 128.11 523.46 129.43C524.42 130.75 525.11 132.22 525.53 133.84C527.21 131.08 528.89 129.19 530.57 128.17C532.67 126.79 535.28 126.1 538.4 126.1ZM565.597 173.08C559.537 173.08 553.897 170.74 548.677 166.06L551.647 162.46C553.927 164.32 556.177 165.76 558.397 166.78C560.677 167.74 563.107 168.22 565.687 168.22C568.927 168.22 571.447 167.47 573.247 165.97C575.107 164.41 576.037 162.31 576.037 159.67C576.037 157.99 575.617 156.64 574.777 155.62C573.997 154.54 572.917 153.67 571.537 153.01C570.217 152.35 567.817 151.3 564.337 149.86C561.157 148.54 558.697 147.4 556.957 146.44C555.217 145.48 553.837 144.31 552.817 142.93C551.797 141.49 551.287 139.69 551.287 137.53C551.287 133.99 552.547 131.17 555.067 129.07C557.587 126.91 560.947 125.83 565.147 125.83C567.307 125.83 569.437 126.13 571.537 126.73C573.697 127.33 575.527 128.2 577.027 129.34L574.777 133.21C572.017 131.53 568.897 130.69 565.417 130.69C562.657 130.69 560.527 131.23 559.027 132.31C557.527 133.39 556.777 134.92 556.777 136.9C556.777 138.4 557.167 139.63 557.947 140.59C558.787 141.55 559.837 142.36 561.097 143.02C562.417 143.62 564.577 144.52 567.577 145.72C570.997 147.1 573.637 148.36 575.497 149.5C577.417 150.58 578.887 151.93 579.907 153.55C580.987 155.11 581.527 157.06 581.527 159.4C581.527 163.54 580.057 166.87 577.117 169.39C574.237 171.85 570.397 173.08 565.597 173.08ZM609.838 172.9C605.338 172.9 601.528 171.97 598.408 170.11C595.288 168.25 592.918 165.7 591.298 162.46C589.738 159.16 588.958 155.44 588.958 151.3C588.958 147.22 589.708 143.26 591.208 139.42C592.768 135.58 595.078 132.43 598.138 129.97C601.258 127.51 605.038 126.28 609.478 126.28C612.418 126.28 615.148 126.85 617.668 127.99C620.188 129.13 622.168 130.75 623.608 132.85C625.108 134.95 625.858 137.38 625.858 140.14C625.858 144.58 623.968 148.03 620.188 150.49C616.408 152.89 611.188 154.06 604.528 154L594.628 153.91C595.168 158.53 596.698 162.04 599.218 164.44C601.798 166.84 605.338 168.04 609.838 168.04C612.538 168.04 615.028 167.68 617.308 166.96C619.648 166.18 621.898 165.01 624.058 163.45L626.758 167.05C624.478 168.85 621.868 170.29 618.928 171.37C616.048 172.39 613.018 172.9 609.838 172.9ZM605.698 149.32C615.538 149.32 620.458 146.23 620.458 140.05C620.458 137.05 619.408 134.83 617.308 133.39C615.268 131.89 612.748 131.14 609.748 131.14C606.388 131.14 603.538 132.1 601.198 134.02C598.918 135.94 597.208 138.31 596.068 141.13C594.928 143.95 594.358 146.68 594.358 149.32H605.698Z" fill="#E5E5E5"/>
<defs>
<filter id="filter0_d" x="94.8765" y="2.05884" width="276.301" height="166.868" filterUnits="userSpaceOnUse" color-interpolation-filters="sRGB">
<feFlood flood-opacity="0" result="BackgroundImageFix"/>
<feColorMatrix in="SourceAlpha" type="matrix" values="0 0 0 0 0 0 0 0 0 0 0 0 0 0 0 0 0 0 127 0"/>
<feOffset dy="4"/>
<feGaussianBlur stdDeviation="25"/>
<feColorMatrix type="matrix" values="0 0 0 0 0.133333 0 0 0 0 0.156863 0 0 0 0 0.192157 0 0 0 0.5 0"/>
<feBlend mode="normal" in2="BackgroundImageFix" result="effect1_dropShadow"/>
<feBlend mode="normal" in="SourceGraphic" in2="effect1_dropShadow" result="shape"/>
</filter>
<filter id="filter1_d" x="11.6876" y="25.9087" width="163.709" height="131.827" filterUnits="userSpaceOnUse" color-interpolation-filters="sRGB">
<feFlood flood-opacity="0" result="BackgroundImageFix"/>
<feColorMatrix in="SourceAlpha" type="matrix" values="0 0 0 0 0 0 0 0 0 0 0 0 0 0 0 0 0 0 127 0"/>
<feOffset dy="4"/>
<feGaussianBlur stdDeviation="25"/>
<feColorMatrix type="matrix" values="0 0 0 0 0.133333 0 0 0 0 0.156863 0 0 0 0 0.192157 0 0 0 0.5 0"/>
<feBlend mode="normal" in2="BackgroundImageFix" result="effect1_dropShadow"/>
<feBlend mode="normal" in="SourceGraphic" in2="effect1_dropShadow" result="shape"/>
</filter>
<filter id="filter2_d" x="44.3383" y="24.2953" width="111.304" height="122.147" filterUnits="userSpaceOnUse" color-interpolation-filters="sRGB">
<feFlood flood-opacity="0" result="BackgroundImageFix"/>
<feColorMatrix in="SourceAlpha" type="matrix" values="0 0 0 0 0 0 0 0 0 0 0 0 0 0 0 0 0 0 127 0"/>
<feOffset dy="4"/>
<feGaussianBlur stdDeviation="25"/>
<feColorMatrix type="matrix" values="0 0 0 0 0.133333 0 0 0 0 0.156863 0 0 0 0 0.192157 0 0 0 0.5 0"/>
<feBlend mode="normal" in2="BackgroundImageFix" result="effect1_dropShadow"/>
<feBlend mode="normal" in="SourceGraphic" in2="effect1_dropShadow" result="shape"/>
</filter>
<filter id="filter3_d" x="1.08154" y="19.4684" width="115.8" height="122.427" filterUnits="userSpaceOnUse" color-interpolation-filters="sRGB">
<feFlood flood-opacity="0" result="BackgroundImageFix"/>
<feColorMatrix in="SourceAlpha" type="matrix" values="0 0 0 0 0 0 0 0 0 0 0 0 0 0 0 0 0 0 127 0"/>
<feOffset dy="4"/>
<feGaussianBlur stdDeviation="25"/>
<feColorMatrix type="matrix" values="0 0 0 0 0.133333 0 0 0 0 0.156863 0 0 0 0 0.192157 0 0 0 0.5 0"/>
<feBlend mode="normal" in2="BackgroundImageFix" result="effect1_dropShadow"/>
<feBlend mode="normal" in="SourceGraphic" in2="effect1_dropShadow" result="shape"/>
</filter>
<filter id="filter4_d" x="93.7948" y="0.977295" width="276.301" height="166.868" filterUnits="userSpaceOnUse" color-interpolation-filters="sRGB">
<feFlood flood-opacity="0" result="BackgroundImageFix"/>
<feColorMatrix in="SourceAlpha" type="matrix" values="0 0 0 0 0 0 0 0 0 0 0 0 0 0 0 0 0 0 127 0"/>
<feOffset dy="4"/>
<feGaussianBlur stdDeviation="25"/>
<feColorMatrix type="matrix" values="0 0 0 0 0.133333 0 0 0 0 0.156863 0 0 0 0 0.192157 0 0 0 0.5 0"/>
<feBlend mode="normal" in2="BackgroundImageFix" result="effect1_dropShadow"/>
<feBlend mode="normal" in="SourceGraphic" in2="effect1_dropShadow" result="shape"/>
</filter>
<filter id="filter5_d" x="10.6061" y="24.8271" width="163.709" height="131.827" filterUnits="userSpaceOnUse" color-interpolation-filters="sRGB">
<feFlood flood-opacity="0" result="BackgroundImageFix"/>
<feColorMatrix in="SourceAlpha" type="matrix" values="0 0 0 0 0 0 0 0 0 0 0 0 0 0 0 0 0 0 127 0"/>
<feOffset dy="4"/>
<feGaussianBlur stdDeviation="25"/>
<feColorMatrix type="matrix" values="0 0 0 0 0.133333 0 0 0 0 0.156863 0 0 0 0 0.192157 0 0 0 0.5 0"/>
<feBlend mode="normal" in2="BackgroundImageFix" result="effect1_dropShadow"/>
<feBlend mode="normal" in="SourceGraphic" in2="effect1_dropShadow" result="shape"/>
</filter>
<filter id="filter6_d" x="43.2568" y="23.2139" width="111.304" height="122.147" filterUnits="userSpaceOnUse" color-interpolation-filters="sRGB">
<feFlood flood-opacity="0" result="BackgroundImageFix"/>
<feColorMatrix in="SourceAlpha" type="matrix" values="0 0 0 0 0 0 0 0 0 0 0 0 0 0 0 0 0 0 127 0"/>
<feOffset dy="4"/>
<feGaussianBlur stdDeviation="25"/>
<feColorMatrix type="matrix" values="0 0 0 0 0.133333 0 0 0 0 0.156863 0 0 0 0 0.192157 0 0 0 0.5 0"/>
<feBlend mode="normal" in2="BackgroundImageFix" result="effect1_dropShadow"/>
<feBlend mode="normal" in="SourceGraphic" in2="effect1_dropShadow" result="shape"/>
</filter>
<filter id="filter7_d" x="0" y="18.3868" width="115.8" height="122.427" filterUnits="userSpaceOnUse" color-interpolation-filters="sRGB">
<feFlood flood-opacity="0" result="BackgroundImageFix"/>
<feColorMatrix in="SourceAlpha" type="matrix" values="0 0 0 0 0 0 0 0 0 0 0 0 0 0 0 0 0 0 127 0"/>
<feOffset dy="4"/>
<feGaussianBlur stdDeviation="25"/>
<feColorMatrix type="matrix" values="0 0 0 0 0.133333 0 0 0 0 0.156863 0 0 0 0 0.192157 0 0 0 0.5 0"/>
<feBlend mode="normal" in2="BackgroundImageFix" result="effect1_dropShadow"/>
<feBlend mode="normal" in="SourceGraphic" in2="effect1_dropShadow" result="shape"/>
</filter>
</defs>
</svg>
